<svg width="1206.786" height="279.168" xml:space="preserve" xmlns="http://www.w3.org/2000/svg"><text x="307.016" y="90.083"><tspan x="307.016" y="90.083" fill="#5d5d5d" font-family="Esphimere" font-size="113">S</tspan><tspan x="372.329" y="90.083" fill="#5d5d5d" font-family="Esphimere" font-size="113" letter-spacing="-3">istema</tspan><tspan x="690.761" y="90.083" fill="#5d5d5d" font-family="Esphimere" font-size="113" letter-spacing="-2"> d</tspan><tspan x="773.928" y="90.083" fill="#5d5d5d" font-family="Esphimere" font-size="113" letter-spacing="-3">e Gestión</tspan></text><text x="280.121" y="278.583" style="font-style:normal;font-variant:normal;font-weight:600;font-stretch:normal;font-family:Esphimere;-inkscape-font-specification:'Esphimere Semi-Bold'"><tspan x="280.121" y="278.583" fill="#5d5d5d" font-family="Esphimere-SemiBold" font-size="195" letter-spacing="2" style="font-style:normal;font-variant:normal;font-weight:600;font-stretch:normal;font-family:Esphimere;-inkscape-font-specification:'Esphimere Semi-Bold'">A</tspan><tspan x="419.935" y="278.583" fill="#5d5d5d" font-family="Esphimere-SemiBold" font-size="195" letter-spacing="4" style="font-style:normal;font-variant:normal;font-weight:600;font-stretch:normal;font-family:Esphimere;-inkscape-font-specification:'Esphimere Semi-Bold'">m</tspan><tspan x="588.61" y="278.583" fill="#5d5d5d" font-family="Esphimere-SemiBold" font-size="195" style="font-style:normal;font-variant:normal;font-weight:600;font-stretch:normal;font-family:Esphimere;-inkscape-font-specification:'Esphimere Semi-Bold'">biental</tspan></text><g fill="#032856"><path d="M196.47 0a9.816 9.816 0 0 0-9.068 6.058l-.037.025-128.34 258.271.006.01a9.767 9.767 0 0 0-1.052 4.404c0 5.422 4.395 9.816 9.817 9.816h168.97V0ZM254.016 0h16.125v278.584h-16.125z"/></g><path fill="#00daa8" d="M98.954 6.087C66.279 42.841 38.682 84.208 17.249 129.083h163.408C159.225 84.208 131.628 42.841 98.954 6.087Z"/><path fill="#00b185" d="M187.351 6.1C134.658 24.599 85.764 51.16 42.12 84.28l-.001.015.015.008C16.535 103.727 0 134.473 0 169.085c0 41.735 24.041 77.851 59.026 95.269z"/><path fill="#018e64" d="M106.366 275.452c58.745 0 106.367-47.622 106.367-106.367 0-56.846-8.905-111.611-25.382-162.985L59.025 264.354c14.258 7.098 30.332 11.098 47.341 11.098z"/><g><path fill="#00754f" d="M163.253 54.604a2.5 2.5 0 0 0-3.351 1.126L56.806 263.2c.737.39 1.472.781 2.219 1.153.745.371 1.498.729 2.253 1.082L164.38 57.955a2.5 2.5 0 0 0-1.127-3.351z"/></g></svg>