<svg width="212.733" height="269.365" xml:space="preserve" xmlns="http://www.w3.org/2000/svg"><path fill="#00daa8" d="M98.954 0C66.279 36.754 38.682 78.121 17.249 122.996h163.408C159.225 78.121 131.628 36.754 98.954 0Z"/><path fill="#00b185" d="M187.351.013C134.658 18.512 85.764 45.073 42.12 78.193l-.001.015.015.008C16.535 97.64 0 128.386 0 162.998c0 41.735 24.041 77.851 59.026 95.269z"/><path fill="#018e64" d="M106.366 269.365c58.745 0 106.367-47.622 106.367-106.367 0-56.846-8.905-111.611-25.382-162.985L59.025 258.267c14.258 7.098 30.332 11.098 47.341 11.098z"/><path fill="#00754f" d="M163.253 48.517a2.5 2.5 0 0 0-3.351 1.126L56.806 257.113c.737.39 1.472.781 2.219 1.153.745.371 1.498.729 2.253 1.082L164.38 51.868a2.5 2.5 0 0 0-1.127-3.351z"/></svg>